<svg version="1.1" viewBox="0.0 0.0 1280.0 720.0" fill="none" stroke="none" stroke-linecap="square" stroke-miterlimit="10" xmlns:xlink="http://www.w3.org/1999/xlink" xmlns="http://www.w3.org/2000/svg"><clipPath id="g30cbf8aab99_0_0.0"><path d="m0 0l1280.0 0l0 720.0l-1280.0 0l0 -720.0z" clip-rule="nonzero"/></clipPath><g clip-path="url(#g30cbf8aab99_0_0.0)"><path fill="#ffffff" d="m0 0l1280.0 0l0 720.0l-1280.0 0z" fill-rule="evenodd"/><path fill="#00964e" d="m172.29279 394.05783l0 0c3.3056183 4.571533 1.4042206 12.876801 -4.246887 18.550354l0 0c-5.6510925 5.673523 -12.911957 6.5668945 -16.217575 1.9953613l0 0c-3.3056183 -4.571533 -1.4042206 -12.876801 4.246872 -18.550323l0 0c5.651108 -5.6735535 12.911972 -6.566925 16.21759 -1.9953918z" fill-rule="evenodd"/><path fill="#00964e" d="m140.47295 362.8908l0 0c-0.15119934 -5.9981995 5.7450256 -11.071381 13.169571 -11.331238l0 0c7.4245605 -0.25985718 13.565918 4.3919983 13.717117 10.390228l0 0c0.1512146 5.9981995 -5.7450104 11.071381 -13.169556 11.331238l0 0c-7.4245605 0.25985718 -13.565918 -4.3919983 -13.717133 -10.390228z" fill-rule="evenodd"/><path fill="#00964e" d="m191.64282 358.7643l0 0c5.6868286 -3.2615051 12.755112 0.045532227 15.787415 7.3865356l0 0c3.032318 7.340973 0.88038635 15.936005 -4.8064423 19.19754l0 0c-5.686844 3.2615051 -12.755112 -0.045532227 -15.78743 -7.3865356l0 0c-3.0323029 -7.340973 -0.88038635 -15.936005 4.8064575 -19.19754z" fill-rule="evenodd"/><path fill="#00964e" d="m194.32785 371.98532l3.028061 4.783539l-31.058228 27.297516l-3.028061 -4.783539z" fill-rule="evenodd"/><path fill="#00964e" d="m196.87695 367.53687l-0.53240967 5.959839l-38.53354 -4.77948l0.53240967 -5.959839z" fill-rule="evenodd"/><path fill="#43d658" d="m360.83582 631.89624c1.326416 -1.0837402 -20.160004 -31.714783 -20.160004 -31.714783c-8.319977 -12.93335 -20.47998 -30.702637 -29.76001 -45.885254c-9.279999 -15.182617 -19.919983 -34.41382 -25.919983 -45.21039c-6.0 -10.796509 -6.4000244 -11.358826 -10.080017 -19.568695c-3.6799927 -8.209839 -7.9999695 -19.118866 -11.9999695 -29.69043c-4.0000305 -10.571594 -7.9200134 -21.143219 -12.0 -33.739166c-4.0799866 -12.595947 -9.440033 -29.69043 -12.480011 -41.836517c-3.0399933 -12.146088 -3.4400024 -17.207 -5.7599945 -31.040009c-2.3200073 -13.833008 -5.6000214 -30.590118 -8.160004 -51.95822c-2.5599976 -21.368134 -5.280014 -50.046417 -7.200012 -76.25047c-1.9200134 -26.20404 -4.319992 -80.97386 -4.319992 -80.97386l-4.3200073 -72.20176c-0.88002014 -13.495628 -1.4398346 -16.20338 -1.244278 -24.038383c-0.80000305 3.2614403 -2.32312 26.779839 -3.5557404 43.60708l-3.839981 57.356483l-3.839981 61.405273c-1.6000061 21.93045 -4.4293365 49.869507 -6.8700104 72.30701c-2.440689 22.4375 -4.302704 42.5419 -7.774185 62.317993c-3.4714813 19.776093 -8.450638 39.598816 -13.054611 56.33841c-4.6039886 16.739624 -9.261002 29.591461 -14.569214 44.099304c-5.3082275 14.507843 -10.160065 27.315369 -17.280106 42.947784c-7.120041 15.632446 -17.68483 35.88907 -25.44014 50.84677c-7.75531 14.957642 -11.691528 23.358154 -21.091759 38.89923c-9.400223 15.541016 -38.554554 51.820923 -35.309673 54.347046c3.2448845 2.526062 21.419086 0.4805298 33.487316 0.71795654c12.068222 0.23742676 28.698273 0.95758057 38.922012 0.70654297c10.223732 -0.25097656 18.322456 0.14440918 22.420357 -2.2128296c-0.23919678 -5.6829834 0.06881714 -7.147217 0.2315979 -10.721802c0.16278076 -3.574585 0.14654541 -6.62677 0.74516296 -10.725769c0.59861755 -4.09906 1.5692596 -9.303772 2.846466 -13.868408c1.2772064 -4.564575 3.0897827 -9.532654 4.8167725 -13.519226c1.7269897 -3.9865723 3.5451813 -7.2512207 5.5451813 -10.4002075c1.9999847 -3.1489258 4.098984 -5.8410034 6.4548035 -8.493713c2.3558197 -2.65271 5.1614227 -5.410034 7.680008 -7.4226074c2.5186005 -2.0125732 4.753006 -3.3692627 7.43161 -4.652771c2.6786194 -1.2835083 5.558609 -2.3616943 8.639999 -3.0482788c3.0813751 -0.6865845 6.7697906 -1.0554199 9.848373 -1.071106c3.078598 -0.01574707 5.2660217 0.2980957 8.62323 0.97680664c3.3572083 0.67871094 7.8372498 1.4124146 11.520035 3.095459c3.682785 1.6829834 7.613968 4.656616 10.576767 7.0026855c2.962799 2.3460083 5.11998 4.645569 7.1999817 7.0734253c2.0800018 2.4277954 3.6470032 4.669922 5.279999 7.493286c1.6330109 2.8234253 3.078064 5.735718 4.518036 9.4470215c1.4399872 3.7113037 3.0349884 8.209839 4.1219635 12.820862c1.0869904 4.610962 1.837204 8.121765 2.4000092 14.845215c0.5628052 6.7234497 -1.8416748 26.292908 0.97680664 25.495483c2.818451 -0.79748535 7.5960693 -0.97680664 7.5960693 -0.97680664l5.149109 -0.32562256c3.6799927 0 8.091705 -0.43804932 12.99353 -0.6511841c4.901825 -0.21313477 12.012329 -0.41448975 16.417328 -0.6276245c4.4050293 -0.21313477 6.007324 -0.44195557 10.012909 -0.65112305c4.0055847 -0.20922852 10.33786 -0.45703125 14.02066 -0.60406494c3.6828003 -0.14703369 5.756073 -0.84069824 8.07608 -0.2783203c2.3199768 0.56225586 3.1172485 0.36090088 7.696808 0.39630127c4.5795593 0.03540039 18.454254 0.89971924 19.7807 -0.184021z" fill-rule="evenodd"/><path fill="#ffffff" d="m195.21463 419.82413c-2.741684 17.578705 -11.2282715 63.23221 -12.249481 77.31583c9.14563 1.1236572 40.023483 1.7079163 48.520187 1.046936c-2.3191223 -11.574646 -9.415649 -62.55008 -12.249527 -78.33896c-7.376541 -0.100494385 -15.610016 -0.40716553 -24.02118 -0.023803711z" fill-rule="evenodd"/><path fill="#81e490" d="m57.38447 372.90323l0 0c-2.9043198 -4.5577087 -3.161045 -9.589264 -0.57341385 -11.238281l0 0c1.2426224 -0.79190063 2.9883957 -0.6819153 4.8532677 0.30575562c1.864872 0.9877014 3.6960793 2.7721558 5.090786 4.960846l0 0c2.9043198 4.5577087 3.1610413 9.589264 0.57341003 11.238281l0 0c-2.5876312 1.6490479 -7.039734 -0.7088928 -9.94405 -5.2666016z" fill-rule="evenodd"/><path fill="#81e490" d="m112.932526 410.20114l0 0c-3.3381577 -5.2385254 -2.695221 -11.619446 1.4360428 -14.252197l0 0c1.983902 -1.2643127 4.5233536 -1.477478 7.0597 -0.59265137c2.536354 0.88482666 4.8618393 2.795166 6.4648743 5.310791l0 0c3.3381653 5.2385254 2.695221 11.619446 -1.4360352 14.252197l0 0c-4.131256 2.6327515 -10.186417 0.5203552 -13.524582 -4.7181396z" fill-rule="evenodd"/><path fill="#43d658" d="m90.87144 366.6375l0 0c-3.3381577 -5.2385254 -1.1597366 -12.597961 4.8656387 -16.437805l0 0c6.0253754 -3.8398132 13.61602 -2.7059326 16.954178 2.5325623l0 0c3.3381577 5.2385254 1.1597366 12.597992 -4.8656387 16.437805l0 0c-6.0253754 3.8398132 -13.61602 2.7059631 -16.954178 -2.5325623z" fill-rule="evenodd"/><path fill="#bef2c7" d="m43.664993 479.40027l0 0c-2.9043198 -4.5577087 -2.3449402 -10.1093445 1.2494049 -12.399933l0 0c1.7260666 -1.0999756 3.9354782 -1.2854614 6.1421967 -0.515625c2.2067146 0.7698364 4.229973 2.4319153 5.6246758 4.6206055l0 0c2.9043198 4.557678 2.3449402 10.109314 -1.2494049 12.399902l0 0c-3.594345 2.2905884 -8.862553 0.45272827 -11.766872 -4.10495z" fill-rule="evenodd"/><path fill="#81e490" d="m101.03296 510.85117l0 0c-3.3381577 -5.2385254 -2.695221 -11.619446 1.4360352 -14.252197l0 0c1.983902 -1.2642822 4.5233536 -1.477478 7.0597076 -0.59265137c2.5363464 0.88482666 4.8618317 2.795166 6.4648743 5.310791l0 0c3.3381577 5.2385254 2.695221 11.619476 -1.4360352 14.252228l0 0c-4.1312637 2.6327515 -10.186424 0.5203247 -13.524582 -4.71817z" fill-rule="evenodd"/><path fill="#00964e" d="m111.819275 436.3639l0 0c3.1690598 -3.8640747 10.779037 -1.7803955 16.99736 4.6540833l0 0c6.2183075 6.4344788 8.690216 14.783142 5.5211487 18.647217l0 0c-3.1690521 3.8641052 -10.77903 1.780426 -16.997353 -4.6540527l0 0c-6.218315 -6.4344788 -8.690224 -14.783142 -5.5211563 -18.647247z" fill-rule="evenodd"/><path fill="#00964e" d="m93.43707 475.80313l0 0c-5.1347504 0.24871826 -10.890282 -6.478119 -12.855347 -15.024811l0 0c-1.9650574 -8.546661 0.60448456 -15.676727 5.739235 -15.925415l0 0c5.1347504 -0.24871826 10.890282 6.478119 12.855347 15.024811l0 0c1.9650574 8.546661 -0.60448456 15.676727 -5.739235 15.925415z" fill-rule="evenodd"/><path fill="#00964e" d="m47.18196 438.17773l0 0c-4.9223976 0.9963074 -10.528385 -2.8789673 -12.521324 -8.65564l0 0c-1.9929428 -5.776703 0.3818512 -11.267273 5.304245 -12.263611l0 0c4.9223976 -0.9963074 10.528385 2.8789673 12.521324 8.65564l0 0c1.9929428 5.776703 -0.3818512 11.267303 -5.304245 12.263611z" fill-rule="evenodd"/><path fill="#00964e" d="m75.16507 416.51926l0 0c-4.1516113 -6.515045 -2.9590683 -14.701294 2.6636276 -18.284515l0 0c2.7001114 -1.7207031 6.0816116 -2.1280823 9.4006195 -1.1325378c3.3190079 0.99554443 6.3036423 3.3125 8.29731 6.4411316l0 0c4.1516113 6.515045 2.9590607 14.701324 -2.6636276 18.284515l0 0c-5.6226883 3.583191 -13.546326 1.2064514 -17.69793 -5.3085938z" fill-rule="evenodd"/><path fill="#00964e" d="m45.27361 434.318l2.895916 -6.4195557l36.995674 26.23114l-2.8959198 6.4195557z" fill-rule="evenodd"/><path fill="#00964e" d="m86.77608 412.22342l3.4397125 -3.5401611l30.73642 35.50653l-3.4397125 3.5401917z" fill-rule="evenodd"/><path fill="#00964e" d="m82.802284 410.54706l5.2511063 0.5536499l4.7961044 44.419434l-5.251114 -0.5536499z" fill-rule="evenodd"/><path fill="#d8f2cf" d="m98.575386 538.6434l0 0c2.423561 -2.958252 8.251175 -1.3618774 13.01635 3.5655518l0 0c4.765175 4.927429 6.6634216 11.320068 4.239868 14.278259l0 0c-2.423561 2.958191 -8.251183 1.3618774 -13.01635 -3.5656128l0 0c-4.765175 -4.927429 -6.6634293 -11.320007 -4.239868 -14.278198z" fill-rule="evenodd"/><path fill="#196b24" d="m163.12585 579.2598l0 0c-4.096039 0.8286743 -8.76062 -2.3962402 -10.418625 -7.203064l0 0c-1.65802 -4.8068237 0.3183899 -9.375305 4.4144287 -10.2039795l0 0c4.0960236 -0.8286743 8.76062 2.3962402 10.418625 7.203064l0 0c1.65802 4.8068237 -0.3183899 9.375305 -4.4144287 10.2039795z" fill-rule="evenodd"/><path fill="#d8f2cf" d="m87.435326 518.9913l0 0c-0.20830536 5.6779175 -6.651291 8.545044 -14.390823 6.4039307l0 0c-7.7395325 -2.1411133 -13.844803 -8.479675 -13.636501 -14.157593l0 0c0.20830154 -5.6779175 6.6512947 -8.545044 14.390827 -6.4039307l0 0c7.7395325 2.1411133 13.844803 8.479675 13.6364975 14.157593z" fill-rule="evenodd"/><path fill="#196b24" d="m129.0381 543.866l0 0c-2.4218674 -4.094116 -0.52223206 -9.594543 4.2429504 -12.2855835l0 0c4.7651825 -2.69104 10.591431 -1.5536499 13.01329 2.5404663l0 0c2.4218597 4.094116 0.52223206 9.5946045 -4.2429504 12.285645l0 0c-4.7651825 2.69104 -10.591431 1.5535889 -13.01329 -2.5405273z" fill-rule="evenodd"/><path fill="#d8f2cf" d="m70.72973 515.3882l2.9607468 -4.053467l33.539223 32.197815l-2.9607544 4.053467z" fill-rule="evenodd"/><path fill="#196b24" d="m132.76678 535.8758l3.8646698 -2.9924927l27.607727 38.316895l-3.8646698 2.9924927z" fill-rule="evenodd"/><path fill="#bef2c7" d="m39.092957 396.21857l0 0c-2.9043198 -4.5577087 -2.3449402 -10.1093445 1.2494049 -12.399933l0 0c1.7260628 -1.0999756 3.9354782 -1.2854614 6.1421967 -0.515625c2.2067146 0.7698364 4.229973 2.4319153 5.6246758 4.6206055l0 0c2.904316 4.557678 2.3449402 10.109314 -1.2494049 12.399902l0 0c-3.594345 2.2905884 -8.862556 0.45272827 -11.766872 -4.10495z" fill-rule="evenodd"/><path fill="#81e490" d="m177.28673 561.222l0 0c-4.418274 -1.7738647 -7.5786896 -6.0455933 -7.0590057 -9.541138l0 0c0.2495575 -1.6786499 1.3317566 -2.9501343 3.0085144 -3.534729c1.6767578 -0.58465576 3.8107147 -0.43450928 5.9324493 0.41729736l0 0c4.418274 1.7739258 7.5786896 6.0456543 7.0590057 9.541199l0 0c-0.5196991 3.4955444 -4.522705 4.8912964 -8.940964 3.1173706z" fill-rule="evenodd"/><path fill="#d8f2cf" d="m129.54271 553.71204l0 0c-2.287407 -3.565918 -1.98423 -7.838623 0.6771698 -9.543274l0 0c1.2780457 -0.81866455 2.9401245 -0.9234619 4.6205597 -0.29144287c1.6804504 0.63201904 3.241623 1.9490967 4.3400726 3.661499l0 0c2.2874146 3.565918 1.9842377 7.838623 -0.6771698 9.543335l0 0c-2.6614075 1.7046509 -6.673218 0.19586182 -8.960632 -3.3701172z" fill-rule="evenodd"/><path fill="#d8f2cf" d="m114.73599 516.80505l0 0c-2.2874146 -3.565918 -1.9842377 -7.8385925 0.6771698 -9.543274l0 0c1.2780533 -0.81863403 2.940117 -0.9234619 4.6205597 -0.2914734c1.6804428 0.63201904 3.2416153 1.9491272 4.3400726 3.6615295l0 0c2.2874146 3.565918 1.9842377 7.838623 -0.6771698 9.543335l0 0c-2.6613998 1.7046509 -6.67321 0.19586182 -8.960632 -3.3701172z" fill-rule="evenodd"/><path fill="#43d658" d="m106.10833 585.344l0 0c-3.5920258 -1.756897 -5.382881 -5.472595 -4.0 -8.299255l0 0c0.6640854 -1.3573608 1.986206 -2.3240356 3.6755142 -2.687317c1.6893005 -0.36328125 3.6074142 -0.09338379 5.3323593 0.7503052l0 0c3.5920258 1.756897 5.382889 5.472595 4.0 8.299255l0 0c-1.3828812 2.8266602 -5.415848 3.6938477 -9.007874 1.9370117z" fill-rule="evenodd"/><path fill="#12501b" d="m142.79654 591.7954l0 0c-1.539444 -2.652649 -1.0740967 -5.797241 1.0393677 -7.0236206l0 0c1.0149231 -0.5888672 2.281952 -0.64764404 3.5223389 -0.16326904c1.2404022 0.48431396 2.3525696 1.4721069 3.0918274 2.7459717l0 0c1.539444 2.65271 1.0740967 5.7973022 -1.0393677 7.0236206l0 0c-2.1134644 1.2263184 -5.0747375 0.070007324 -6.6141663 -2.5827026z" fill-rule="evenodd"/><path stroke="#12501b" stroke-width="1.0" stroke-linejoin="round" stroke-linecap="butt" d="m142.79654 591.7954l0 0c-1.539444 -2.652649 -1.0740967 -5.797241 1.0393677 -7.0236206l0 0c1.0149231 -0.5888672 2.281952 -0.64764404 3.5223389 -0.16326904c1.2404022 0.48431396 2.3525696 1.4721069 3.0918274 2.7459717l0 0c1.539444 2.65271 1.0740967 5.7973022 -1.0393677 7.0236206l0 0c-2.1134644 1.2263184 -5.0747375 0.070007324 -6.6141663 -2.5827026z" fill-rule="evenodd"/><path fill="#12501b" d="m149.98726 607.8075l0 0c-1.078476 -1.7133789 -0.909256 -3.7580566 0.3779602 -4.5669556l0 0c0.6181488 -0.38842773 1.4167023 -0.43408203 2.2200165 -0.12695312c0.80329895 0.30718994 1.5455475 0.94195557 2.063446 1.7647705l0 0c1.078476 1.7133789 0.90927124 3.7580566 -0.37794495 4.5668945l0 0c-1.2872162 0.8088989 -3.2049866 0.07562256 -4.283478 -1.6377563z" fill-rule="evenodd"/><path stroke="#12501b" stroke-width="1.0" stroke-linejoin="round" stroke-linecap="butt" d="m149.98726 607.8075l0 0c-1.078476 -1.7133789 -0.909256 -3.7580566 0.3779602 -4.5669556l0 0c0.6181488 -0.38842773 1.4167023 -0.43408203 2.2200165 -0.12695312c0.80329895 0.30718994 1.5455475 0.94195557 2.063446 1.7647705l0 0c1.078476 1.7133789 0.90927124 3.7580566 -0.37794495 4.5668945l0 0c-1.2872162 0.8088989 -3.2049866 0.07562256 -4.283478 -1.6377563z" fill-rule="evenodd"/><path fill="#000000" fill-opacity="0.0" d="m171.00735 584.29156l-9.35434 27.62201" fill-rule="evenodd"/><path stroke="#12501b" stroke-width="3.0" stroke-miterlimit="800.0" stroke-linecap="butt" d="m171.00735 584.29156l-9.35434 27.62201" fill-rule="evenodd"/><path fill="#000000" fill-opacity="0.0" d="m152.85985 606.5996l9.858261 3.7164917" fill-rule="evenodd"/><path stroke="#12501b" stroke-width="3.0" stroke-miterlimit="800.0" stroke-linecap="butt" d="m152.85985 606.5996l9.858261 3.7164917" fill-rule="evenodd"/><path fill="#000000" fill-opacity="0.0" d="m171.00735 584.29156l-22.960632 5.574768" fill-rule="evenodd"/><path stroke="#12501b" stroke-width="3.3333333333333335" stroke-miterlimit="800.0" stroke-linecap="butt" d="m171.00735 584.29156l-22.960632 5.574768" fill-rule="evenodd"/><path fill="#12501b" d="m168.11885 567.8572l0 0c-1.609024 -2.5483398 -1.108429 -5.7563477 1.118103 -7.165344l0 0c1.0692291 -0.67663574 2.401596 -0.8394165 3.70401 -0.45251465c1.3024292 0.38690186 2.4682007 1.291748 3.2408752 2.515503l0 0c1.609024 2.5483398 1.108429 5.7563477 -1.118103 7.165344l0 0c-2.226532 1.4089966 -5.335861 0.48535156 -6.9448853 -2.0629883z" fill-rule="evenodd"/><path fill="#000000" fill-opacity="0.0" d="m160.85417 126.86551l1063.9685 0l0 602.6771l-1063.9685 0z" fill-rule="evenodd"/><path fill="#000000" d="m295.03046 377.6441l0 -150.79688l29.625 0l61.703125 100.703125l0 -100.703125l28.296875 0l0 150.79688l-30.546875 0l-60.796875 -98.328125l0 98.328125l-28.28125 0zm151.81671 0l0 -150.79688l111.8125 0l0 25.515625l-81.375 0l0 33.421875l75.71875 0l0 25.40625l-75.71875 0l0 41.046875l84.25 0l0 25.40625l-114.6875 0zm140.30292 -150.79688l30.4375 0l0 81.671875q0 19.4375 1.140625 25.203125q1.953125 9.265625 9.296875 14.875q7.359375 5.59375 20.109375 5.59375q12.96875 0 19.546875 -5.296875q6.59375 -5.296875 7.921875 -13.0q1.34375 -7.71875 1.34375 -25.625l0 -83.421875l30.4375 0l0 79.203125q0 27.15625 -2.46875 38.375q-2.46875 11.203125 -9.109375 18.921875q-6.625 7.71875 -17.734375 12.296875q-11.109375 4.578125 -29.0 4.578125q-21.609375 0 -32.765625 -4.984375q-11.15625 -5.0 -17.640625 -12.96875q-6.484375 -7.96875 -8.53125 -16.71875q-2.984375 -12.953125 -2.984375 -38.265625l0 -80.4375zm152.42609 150.79688l0 -150.79688l64.09375 0q24.171875 0 35.125 4.0625q10.953125 4.0625 17.53125 14.453125q6.578125 10.390625 6.578125 23.765625q0 16.96875 -9.984375 28.03125q-9.96875 11.046875 -29.8125 13.9375q9.875 5.75 16.296875 12.65625q6.4375 6.890625 17.328125 24.46875l18.421875 29.421875l-36.421875 0l-22.0 -32.8125q-11.734375 -17.59375 -16.0625 -22.171875q-4.3125 -4.578125 -9.15625 -6.265625q-4.828125 -1.703125 -15.3125 -1.703125l-6.171875 0l0 62.953125l-30.453125 0zm30.453125 -87.015625l22.53125 0q21.90625 0 27.359375 -1.84375q5.453125 -1.859375 8.53125 -6.390625q3.09375 -4.53125 3.09375 -11.3125q0 -7.609375 -4.0625 -12.28125q-4.0625 -4.6875 -11.46875 -5.921875q-3.703125 -0.515625 -22.21875 -0.515625l-23.765625 0l0 38.265625zm120.66046 87.015625l0 -150.79688l30.4375 0l0 150.79688l-30.4375 0zm59.448914 0l0 -150.79688l48.859375 0q27.765625 0 36.203125 2.265625q12.953125 3.390625 21.703125 14.765625q8.75 11.359375 8.75 29.359375q0 13.890625 -5.046875 23.359375q-5.046875 9.453125 -12.8125 14.859375q-7.765625 5.390625 -15.78125 7.140625q-10.90625 2.171875 -31.578125 2.171875l-19.859375 0l0 56.875l-30.4375 0zm30.4375 -125.28125l0 42.78125l16.671875 0q18.0 0 24.0625 -2.359375q6.078125 -2.359375 9.515625 -7.40625q3.453125 -5.046875 3.453125 -11.71875q0 -8.234375 -4.84375 -13.578125q-4.828125 -5.359375 -12.234375 -6.6875q-5.453125 -1.03125 -21.90625 -1.03125l-14.71875 0zm102.34973 76.21875l29.625 -2.875q2.671875 14.90625 10.84375 21.90625q8.1875 6.984375 22.078125 6.984375q14.703125 0 22.15625 -6.21875q7.46875 -6.21875 7.46875 -14.546875q0 -5.359375 -3.140625 -9.109375q-3.140625 -3.75 -10.953125 -6.53125q-5.359375 -1.84375 -24.390625 -6.578125q-24.46875 -6.078125 -34.34375 -14.921875q-13.890625 -12.4375 -13.890625 -30.34375q0 -11.515625 6.53125 -21.546875q6.53125 -10.03125 18.8125 -15.265625q12.296875 -5.25 29.6875 -5.25q28.390625 0 42.734375 12.453125q14.359375 12.4375 15.078125 33.21875l-30.453125 1.328125q-1.953125 -11.625 -8.390625 -16.703125q-6.421875 -5.09375 -19.28125 -5.09375q-13.265625 0 -20.78125 5.4375q-4.828125 3.5 -4.828125 9.375q0 5.34375 4.53125 9.140625q5.75 4.84375 27.96875 10.09375q22.21875 5.234375 32.859375 10.84375q10.65625 5.609375 16.671875 15.328125q6.015625 9.71875 6.015625 24.015625q0 12.96875 -7.203125 24.28125q-7.203125 11.3125 -20.375 16.8125q-13.15625 5.5 -32.796875 5.5q-28.59375 0 -43.921875 -13.21875q-15.328125 -13.21875 -18.3125 -38.515625z" fill-rule="nonzero"/><path fill="#000000" d="m565.0313 628.49097l21.90625 0q-10.28125 20.875 -31.578125 32.703125q-24.375 13.578125 -59.453125 13.578125q-33.9375 0 -58.625 -11.46875q-24.6875 -11.46875 -36.71875 -33.828125q-12.03125 -22.375 -12.03125 -48.71875q0 -28.890625 13.671875 -53.828125q13.6875 -24.953156 37.4375 -37.453156q23.765625 -12.5 54.3125 -12.5q25.921875 0 46.078125 10.078125q20.171875 10.078125 30.8125 28.65628q10.640625 18.5625 10.640625 40.578125q0 26.21875 -16.140625 47.40625q-20.265625 26.75 -51.953125 26.75q-8.53125 0 -12.859375 -2.984375q-4.3125 -2.984375 -5.75 -8.734375q-12.140625 11.71875 -27.984375 11.71875q-17.078125 0 -28.34375 -11.78125q-11.25 -11.78125 -11.25 -31.3125q0 -24.171875 13.578125 -44.125q16.453125 -24.28125 42.171875 -24.28125q18.3125 0 27.046875 13.984375l2.578125 -11.40625l27.15625 0l-15.53125 73.75q-1.453125 6.984375 -1.453125 9.046875q0 2.5625 1.1875 3.859375q1.1875 1.28125 2.828125 1.28125q4.9375 0 12.75 -5.96875q10.5 -7.8125 16.96875 -20.96875q6.484375 -13.171875 6.484375 -27.265625q0 -25.3125 -18.3125 -42.328125q-18.296875 -17.03128 -51.109375 -17.03128q-27.875 0 -47.265625 11.375q-19.390625 11.3594055 -29.21875 31.984406q-9.8125 20.625 -9.8125 42.953125q0 21.703125 10.953125 39.5q10.953125 17.78125 30.75 25.953125q19.796875 8.1875 45.3125 8.1875q24.578125 0 42.265625 -6.84375q17.703125 -6.84375 28.5 -20.515625zm-111.1875 -42.28125q0 13.0625 5.296875 19.234375q5.296875 6.171875 13.109375 6.171875q5.859375 0 11.015625 -2.875q3.90625 -2.0625 7.703125 -6.484375q5.453125 -6.265625 9.40625 -18.296875q3.96875 -12.046875 3.96875 -22.4375q0 -11.609375 -5.40625 -17.828125q-5.390625 -6.234375 -13.625 -6.234375q-8.84375 0 -16.359375 6.84375q-7.5 6.84375 -11.3125 19.5q-3.796875 12.640625 -3.796875 22.40625zm149.14478 44.234375l0 -150.7969l48.859375 0q27.765625 0 36.203125 2.265625q12.953125 3.390625 21.703125 14.765625q8.75 11.359375 8.75 29.359406q0 13.890625 -5.046875 23.359375q-5.046875 9.453125 -12.8125 14.859375q-7.765625 5.390625 -15.78125 7.140625q-10.90625 2.171875 -31.578125 2.171875l-19.859375 0l0 56.875l-30.4375 0zm30.4375 -125.28128l0 42.78128l16.671875 0q18.0 0 24.0625 -2.359375q6.078125 -2.359375 9.515625 -7.40625q3.453125 -5.046875 3.453125 -11.71875q0 -8.234375 -4.84375 -13.578125q-4.828125 -5.3594055 -12.234375 -6.6875305q-5.453125 -1.03125 -21.90625 -1.03125l-14.71875 0zm230.41754 125.28128l-33.125 0l-13.171875 -34.25l-60.265625 0l-12.453125 34.25l-32.296875 0l58.734375 -150.7969l32.1875 0l60.390625 150.7969zm-56.0625 -59.65625l-20.78125 -55.953125l-20.359375 55.953125l41.140625 0zm72.30109 59.65625l0 -150.7969l64.09375 0q24.171875 0 35.125 4.0625q10.953125 4.0625 17.53125 14.453125q6.578125 10.390625 6.578125 23.765656q0 16.96875 -9.984375 28.03125q-9.96875 11.046875 -29.8125 13.9375q9.875 5.75 16.296875 12.65625q6.4375 6.890625 17.328125 24.46875l18.421875 29.421875l-36.421875 0l-22.0 -32.8125q-11.734375 -17.59375 -16.0625 -22.171875q-4.3125 -4.578125 -9.15625 -6.265625q-4.828125 -1.703125 -15.3125 -1.703125l-6.171875 0l0 62.953125l-30.453125 0zm30.453125 -87.015625l22.53125 0q21.90625 0 27.359375 -1.84375q5.453125 -1.859375 8.53125 -6.390625q3.09375 -4.53125 3.09375 -11.3125q0 -7.609375 -4.0625 -12.2812805q-4.0625 -4.6875 -11.46875 -5.921875q-3.703125 -0.515625 -22.21875 -0.515625l-23.765625 0l0 38.265656zm120.66046 87.015625l0 -150.7969l30.4375 0l0 150.7969l-30.4375 0zm51.730103 -49.0625l29.625 -2.875q2.671875 14.90625 10.84375 21.90625q8.1875 6.984375 22.078125 6.984375q14.703125 0 22.15625 -6.21875q7.46875 -6.21875 7.46875 -14.546875q0 -5.359375 -3.140625 -9.109375q-3.140625 -3.75 -10.953125 -6.53125q-5.359375 -1.84375 -24.390625 -6.578125q-24.46875 -6.078125 -34.34375 -14.921875q-13.890625 -12.4375 -13.890625 -30.34375q0 -11.5156555 6.53125 -21.546906q6.53125 -10.03125 18.8125 -15.265625q12.296875 -5.25 29.6875 -5.25q28.390625 0 42.734375 12.453125q14.359375 12.4375 15.078125 33.21878l-30.453125 1.328125q-1.953125 -11.625 -8.390625 -16.703156q-6.421875 -5.09375 -19.28125 -5.09375q-13.265625 0 -20.78125 5.4375q-4.828125 3.5 -4.828125 9.3750305q0 5.34375 4.53125 9.140625q5.75 4.84375 27.96875 10.09375q22.21875 5.234375 32.859375 10.84375q10.65625 5.609375 16.671875 15.328125q6.015625 9.71875 6.015625 24.015625q0 12.96875 -7.203125 24.28125q-7.203125 11.3125 -20.375 16.8125q-13.15625 5.5 -32.796875 5.5q-28.59375 0 -43.921875 -13.21875q-15.328125 -13.21875 -18.3125 -38.515625z" fill-rule="nonzero"/><path fill="#12501b" d="m169.42451 585.8993l0 0c-2.139557 -2.0003662 -2.6190033 -4.96167 -1.0708618 -6.6141357l0 0c0.7434387 -0.7935791 1.8645782 -1.1730347 3.1167908 -1.0549316c1.2522125 0.11816406 2.5329132 0.7241821 3.5603638 1.6848145l0 0c2.1395721 2.0004272 2.6190033 4.96167 1.0708771 6.614197l0 0c-1.5481415 1.6525269 -4.537613 1.3704834 -6.67717 -0.62994385z" fill-rule="evenodd"/><path stroke="#12501b" stroke-width="1.0" stroke-linejoin="round" stroke-linecap="butt" d="m169.42451 585.8993l0 0c-2.139557 -2.0003662 -2.6190033 -4.96167 -1.0708618 -6.6141357l0 0c0.7434387 -0.7935791 1.8645782 -1.1730347 3.1167908 -1.0549316c1.2522125 0.11816406 2.5329132 0.7241821 3.5603638 1.6848145l0 0c2.1395721 2.0004272 2.6190033 4.96167 1.0708771 6.614197l0 0c-1.5481415 1.6525269 -4.537613 1.3704834 -6.67717 -0.62994385z" fill-rule="evenodd"/><path fill="#12501b" d="m159.65741 609.476l0 0c-0.91322327 -2.3917847 -0.4901886 -4.7749023 0.94488525 -5.322815l0 0c0.68914795 -0.2631836 1.5242767 -0.059265137 2.3216705 0.56689453c0.7973938 0.62609863 1.491745 1.6231079 1.9302979 2.7716675l0 0c0.91322327 2.3917847 0.4901886 4.7749023 -0.94488525 5.322815l0 0c-1.4350739 0.54797363 -3.338745 -0.94677734 -4.2519684 -3.338562z" fill-rule="evenodd"/><path stroke="#12501b" stroke-width="1.0" stroke-linejoin="round" stroke-linecap="butt" d="m159.65741 609.476l0 0c-0.91322327 -2.3917847 -0.4901886 -4.7749023 0.94488525 -5.322815l0 0c0.68914795 -0.2631836 1.5242767 -0.059265137 2.3216705 0.56689453c0.7973938 0.62609863 1.491745 1.6231079 1.9302979 2.7716675l0 0c0.91322327 2.3917847 0.4901886 4.7749023 -0.94488525 5.322815l0 0c-1.4350739 0.54797363 -3.338745 -0.94677734 -4.2519684 -3.338562z" fill-rule="evenodd"/><path fill="#81e490" d="m108.95028 483.4743l0 0c-2.3395996 -3.6877136 -1.7120895 -8.277679 1.4015808 -10.251984l0 0c1.4952316 -0.9480896 3.3755417 -1.1538696 5.2272797 -0.572052c1.851738 0.5817871 3.5232162 1.9035339 4.646736 3.674408l0 0c2.3395996 3.6877136 1.7120895 8.277679 -1.4015808 10.251984l0 0c-3.1136627 1.9743042 -7.534416 0.58532715 -9.874016 -3.102356z" fill-rule="evenodd"/></g></svg>